<?xml version="1.0" ?><!DOCTYPE svg  PUBLIC '-//W3C//DTD SVG 1.1//EN'  'http://www.w3.org/Graphics/SVG/1.1/DTD/svg11.dtd'><svg height="36px" style="enable-background:new 0 0 512 512;" version="1.1" viewBox="0 0 512 512" width="36px" xml:space="preserve" xmlns="http://www.w3.org/2000/svg" xmlns:xlink="http://www.w3.org/1999/xlink"><g id="_x31_8_x2C__Audition_x2C__Adobe"><g><path d="M0,0v512h512V0H0z M489.471,489.475H22.525V22.529h466.945V489.475z"/><g><g id="XMLID_998_"><g id="XMLID_1001_"><g><path d="M144.066,289.607l-18.527,63.051c-0.304,2.171-1.216,2.898-3.039,2.898H91.517        c-2.126,0-2.735-1.086-2.126-3.625c16.404-55.44,44.043-147.842,63.483-210.53c0.913-3.624,1.825-7.248,2.432-19.932        c0-1.448,0.913-2.175,1.823-2.175h41.918c1.517,0,1.821,0.364,2.428,1.812c22.479,74.287,47.083,156.18,70.166,231.188        c0.611,2.176,0,3.262-1.82,3.262h-34.021c-1.517,0-2.126-0.728-2.733-2.177l-19.44-63.772H144.066z M205.423,254.094        c-6.073-24.277-20.958-73.197-27.032-98.56h-0.306c-4.556,23.915-17.008,64.859-26.122,98.56H205.423z" id="XMLID_89_"/></g></g><path d="M417.014,320.398c0,2.447,0.346,9.845,1.047,21.824      c0,1.394-0.137,2.111-1.552,2.448c-18.653,7.048-39.333,14.441-65.385,14.441c-32.029,0-62.649-12.33-62.649-61.595v-112.45      c0-1.764,0.705-2.82,2.461-2.82h33.476c1.769,0,2.461,1.056,2.461,2.82v107.864c0,20.77,7.854,32.03,29.684,32.03      c8.794,0,16.778-1.757,22.061-3.867V185.068c0-1.764,0.691-2.82,2.461-2.82h33.462c2.115,0,2.475,1.056,2.475,2.82V320.398z" id="XMLID_999_" style="fill-rule:evenodd;clip-rule:evenodd;"/></g></g></g></g><g id="Layer_1"/></svg>