<?xml version="1.0" ?><!DOCTYPE svg  PUBLIC '-//W3C//DTD SVG 1.1//EN'  'http://www.w3.org/Graphics/SVG/1.1/DTD/svg11.dtd'><svg height="36px" style="enable-background:new 0 0 512 512;" version="1.1" viewBox="0 0 512 512" width="36px" xml:space="preserve" xmlns="http://www.w3.org/2000/svg" xmlns:xlink="http://www.w3.org/1999/xlink"><g id="_x32_2_x2C__Lightroom_x2C__Adobe"><g><path d="M0,0v512h512V0H0z M489.471,489.475H22.525V22.529h466.945V489.475z"/><g><g><path d="M261.239,338.987h-88.765V140.8c0-1.761-0.606-2.467-2.12-2.467h-32.12c-1.812,0-2.419,1.061-2.419,2.821v228.479      c0,2.466,0.607,3.521,3.025,3.521h116.646c1.513,0,2.423-0.352,3.029-2.466l4.544-28.886      C263.359,340.043,263.061,338.987,261.239,338.987z M374.282,197.778c-1.274-0.35-2.854-0.418-4.128-0.35      C326.691,199.765,296,211.201,296,211.201c-1.59,0-2.222,0.705-1.905,2.115c0.948,11.624,1.58,23.325,1.58,38.825v118.706      c0,2.114,0.642,2.82,2.548,2.82h33.324c1.897,0,2.529-0.706,2.529-2.82V236.12c12.924-5.295,21.48-4.727,39.573-4.021      c1.897,0,2.538-0.706,2.538-2.465v-28.33C376.188,198.482,375.872,198.132,374.282,197.778z"/></g></g></g></g><g id="Layer_1"/></svg>